<svg width="59" height="59" viewBox="0 0 59 59" fill="none" xmlns="http://www.w3.org/2000/svg">
<circle cx="29.5" cy="29.5" r="29.5" fill="#BC1919"/>
<path d="M40.2358 27.0299C39.7434 25.8529 39.0302 24.8294 38.0962 23.9765C37.1622 23.1237 35.9736 22.4414 34.5981 21.9638C33.1886 21.4691 31.5754 21.2303 29.7584 21.2303H25.4282L26.1414 19.6951C24.9358 20.8721 23.7471 21.3326 23.7471 21.3326C25.2414 19.2175 24.5961 17 24.5961 17C24.5961 17 24.1037 18.4158 23.0509 19.4222L22.6433 17.0341C22.6263 18.0746 22.2527 19.081 21.5905 19.8827L20.1641 21.6055L19.6716 22.0149C18.7206 22.8166 18.1433 23.9765 18.0754 25.2047L17.3791 26.2964C17.3791 26.2964 16.1395 27.5757 18.1433 29.1962C18.1942 29.162 18.2961 29.0426 18.5678 28.7868C19.1791 28.2068 20.9452 26.484 20.9452 26.484C20.9452 26.484 22.2697 26.3646 22.9829 24.7953H29.1131H29.8433C31.8301 24.7953 33.4603 25.3412 34.7 26.4328C35.9736 27.5416 36.6188 29.1109 36.6188 31.0896V31.1578C36.6188 33.1535 35.9736 34.7228 34.7 35.8316C33.4603 36.9062 31.8301 37.452 29.8433 37.452H23.1867V27.0469L18.9584 31.2942V41H26.2433C28.0603 41 33.0868 40.7441 34.5132 40.2324C35.9226 39.7377 37.1113 39.0384 38.0622 38.1514C39.0132 37.2815 39.7434 36.2239 40.2358 35.0299C40.7453 33.8188 41 32.4883 41 31.0384V30.9701C40.983 29.5544 40.7283 28.2239 40.2358 27.0299ZM19.5357 24.3689L19.1452 24.71V24.5224C19.1452 24.5053 19.1452 24.4883 19.1452 24.4712C19.1112 24.113 19.2471 23.7548 19.4848 23.4819C19.5527 23.3966 19.6207 23.3284 19.6886 23.2601L20.0791 22.919V23.1066C20.0791 23.6013 19.8924 24.0618 19.5357 24.3689Z" fill="white"/>
</svg>
