<svg width="182" height="24" viewBox="0 0 182 24" fill="none" xmlns="http://www.w3.org/2000/svg">
<path d="M47.6039 7.20755H54.331L59.7194 20.5929H55.9542L55.0338 18.2184H46.8006L45.897 20.5929H42.2155L47.6039 7.20755ZM54.0131 15.3689L52.2392 10.7078H49.6622L47.8214 15.3689H54.0131Z" fill="#E02424"/>
<path d="M66.9224 20.5929C65.8884 20.5929 64.9245 20.4226 64.0482 20.0991C63.1719 19.7755 62.4183 19.3157 61.7698 18.7367C61.1214 18.1577 60.6131 17.4424 60.2626 16.625C59.8946 15.8076 59.7193 14.905 59.7193 13.9343V13.9002C59.7193 12.9636 59.8946 12.0951 60.2626 11.2777C60.6131 10.4602 61.1214 9.74498 61.7348 9.14894C62.3657 8.53587 63.1193 8.05904 63.9956 7.71844C64.8719 7.37785 65.8183 7.20755 66.8348 7.20755C66.8523 7.20755 70.3925 7.20755 70.4101 7.20755C71.5493 7.20755 72.5307 7.37785 73.3719 7.70141C74.2307 8.02498 75.0018 8.48478 75.7029 9.08082L73.5472 11.6012C73.074 11.2095 72.5833 10.903 72.075 10.6986C71.5843 10.4943 71.041 10.3921 70.4101 10.3921C70.3925 10.3921 66.8698 10.3921 66.8523 10.3921C66.3791 10.3921 65.9234 10.4773 65.5204 10.6646C65.1173 10.8519 64.7492 11.1074 64.4513 11.4139C64.1533 11.7375 63.908 12.1121 63.7327 12.5379C63.5575 12.9636 63.4698 13.4234 63.4698 13.9173V13.9513C63.4698 14.4622 63.5575 14.9391 63.7327 15.3818C63.908 15.8246 64.1533 16.1993 64.4863 16.5058C64.8193 16.8123 65.1874 17.0678 65.6255 17.2381C66.0637 17.4084 66.5544 17.5105 67.0802 17.5105C67.0977 17.5105 70.6379 17.5105 70.6554 17.5105C71.4791 17.4935 72.1627 17.3232 72.706 16.9826V15.4159H70.0946V12.8103H76.1936V18.6004C75.4926 19.1624 74.6513 19.6393 73.6874 20.0139C72.741 20.3886 71.6895 20.5759 70.4977 20.5759C70.4802 20.5929 66.9575 20.5929 66.9224 20.5929Z" fill="#E02424"/>
<path d="M84.2352 20.5929C83.236 20.5929 82.3057 20.4226 81.4443 20.065C80.5828 19.7074 79.842 19.2476 79.2218 18.6345C78.6016 18.0385 78.1192 17.3232 77.7574 16.5228C77.3956 15.7054 77.2233 14.8539 77.2233 13.9343V13.9002C77.2233 12.9806 77.3956 12.1121 77.7574 11.2947C78.1192 10.4773 78.6016 9.76201 79.239 9.16597C79.8765 8.5529 80.6173 8.07607 81.4787 7.73547C82.3401 7.37785 83.2705 7.20755 84.2697 7.20755C84.2869 7.20755 87.7498 7.20755 87.7498 7.20755C88.7318 7.20755 89.6622 7.39488 90.5063 7.73547C91.3678 8.0931 92.1086 8.5529 92.7288 9.16597C93.349 9.76201 93.8314 10.4773 94.1932 11.2777C94.555 12.0781 94.7273 12.9466 94.7273 13.8662V13.9002C94.7273 14.8198 94.555 15.6884 94.1932 16.5058C93.8314 17.3232 93.349 18.0385 92.7116 18.6345C92.0741 19.2476 91.3333 19.7244 90.4719 20.065C89.6277 20.4056 88.7146 20.5759 87.7326 20.5929C87.7154 20.5929 84.2525 20.5929 84.2352 20.5929ZM84.2525 17.3743C84.2697 17.3743 87.7326 17.3743 87.7498 17.3743C88.2322 17.3743 88.6629 17.2721 89.0592 17.1018C89.4726 16.9145 89.8172 16.6761 90.1101 16.3525C90.403 16.029 90.6269 15.6713 90.782 15.2626C90.9371 14.8539 91.0232 14.4111 91.0232 13.9343V13.9002C91.0232 13.4404 90.9371 12.9977 90.782 12.5719C90.6269 12.1632 90.3857 11.7885 90.0929 11.465C89.8 11.1414 89.4382 10.886 89.0247 10.6986C88.6285 10.5113 88.215 10.4262 87.7498 10.4091C87.7154 10.4091 84.2525 10.4091 84.218 10.4091C83.7184 10.4091 83.2705 10.4943 82.857 10.6816C82.4607 10.8689 82.0989 11.1074 81.8061 11.4309C81.5132 11.7375 81.2892 12.1121 81.1342 12.5208C80.9791 12.9295 80.893 13.3723 80.893 13.8491V13.8832C80.893 14.343 80.9791 14.7858 81.1342 15.2115C81.2892 15.6202 81.5304 15.9949 81.8233 16.3185C82.1162 16.642 82.4607 16.8975 82.8742 17.0848C83.3049 17.2892 83.7528 17.3743 84.2525 17.3743Z" fill="#E02424"/>
<path d="M95.7568 7.20755H99.2896L108.518 15.3521V7.20755H112.231V20.5929H108.915L99.4699 12.1828V20.5929H95.7568V7.20755Z" fill="#E02424"/>
<path d="M119.456 7.20755H128.459C129.284 7.20755 130.022 7.31378 130.692 7.52625C131.363 7.73872 131.93 8.03971 132.393 8.44694C132.857 8.85416 133.218 9.34992 133.476 9.9342C133.734 10.5185 133.854 11.1913 133.854 11.9172V11.9526C133.854 12.7494 133.716 13.4399 133.441 14.0419C133.167 14.6439 132.771 15.1396 132.273 15.5469C131.775 15.9541 131.191 16.2551 130.503 16.4675C129.816 16.68 129.077 16.7685 128.27 16.7685H123.047V20.5929H119.439V7.20755H119.456ZM128.201 13.8648C128.837 13.8648 129.352 13.7055 129.713 13.3868C130.074 13.0681 130.263 12.6431 130.263 12.112V12.0766C130.263 11.4923 130.074 11.0674 129.713 10.7664C129.352 10.4654 128.837 10.306 128.184 10.306H123.064V13.8648H128.201Z" fill="#E02424"/>
<path d="M134.901 7.20755H144.502C145.502 7.20755 146.363 7.33149 147.053 7.59707C147.742 7.84495 148.311 8.21676 148.742 8.6594C149.518 9.42074 149.897 10.4654 149.897 11.7756V11.811C149.897 12.8379 149.656 13.7055 149.173 14.3783C148.691 15.0511 148.036 15.5646 147.225 15.9187L150.328 20.5929H146.157L143.537 16.5384H143.502H138.503V20.5929H134.883V7.20755H134.901ZM144.329 13.6347C144.95 13.6347 145.433 13.493 145.76 13.2097C146.088 12.9264 146.26 12.5369 146.26 12.0589V12.0235C146.26 11.4923 146.088 11.0851 145.743 10.8195C145.398 10.5539 144.916 10.43 144.312 10.43H138.503V13.6347H144.329Z" fill="#E02424"/>
<path d="M25.7583 7.20755H35.3595C36.3592 7.20755 37.2211 7.33149 37.9106 7.59707C38.6001 7.84495 39.1689 8.21676 39.5999 8.6594C40.3755 9.42074 40.7548 10.4654 40.7548 11.7756V11.811C40.7548 12.8379 40.5134 13.7055 40.0308 14.3783C39.5481 15.0511 38.8931 15.5646 38.083 15.9187L41.1857 20.5929H37.0143L34.3942 16.5384H34.3597H29.3609V20.5929H25.741V7.20755H25.7583ZM35.1871 13.6347C35.8076 13.6347 36.2903 13.493 36.6178 13.2097C36.9453 12.9264 37.1177 12.5369 37.1177 12.0589V12.0235C37.1177 11.4923 36.9453 11.0851 36.6006 10.8195C36.2558 10.5539 35.7732 10.43 35.1699 10.43H29.3609V13.6347H35.1871Z" fill="#E02424"/>
<path d="M151.358 7.20755H164.661V10.3633H154.753V12.3844H160.737V15.3097H154.753V17.4372H164.743V20.5929H151.358V7.20755Z" fill="#E02424"/>
<path d="M166.82 7.20755H175.822C176.647 7.20755 177.386 7.31378 178.056 7.52625C178.726 7.73872 179.293 8.03971 179.757 8.44694C180.221 8.85416 180.582 9.34992 180.839 9.9342C181.097 10.5185 181.217 11.1913 181.217 11.9172V11.9526C181.217 12.7494 181.08 13.4399 180.805 14.0419C180.53 14.6439 180.135 15.1396 179.637 15.5469C179.138 15.9541 178.554 16.2551 177.867 16.4675C177.18 16.68 176.441 16.7685 175.633 16.7685H170.41V20.5929H166.802V7.20755H166.82ZM175.565 13.8648C176.2 13.8648 176.716 13.7055 177.077 13.3868C177.438 13.0681 177.627 12.6431 177.627 12.112V12.0766C177.627 11.4923 177.438 11.0674 177.077 10.7664C176.716 10.4654 176.2 10.306 175.548 10.306H170.428V13.8648H175.565Z" fill="#E02424"/>
<path d="M23.9247 9.89688C23.4176 8.73551 22.6832 7.72563 21.7216 6.88405C20.7599 6.04248 19.536 5.36922 18.1198 4.89794C16.6685 4.40983 15.0075 4.17419 13.1366 4.17419H8.67807L9.41243 2.65937C8.17102 3.82073 6.9471 4.27518 6.9471 4.27518C8.48574 2.18809 7.82133 0 7.82133 0C7.82133 0 7.31428 1.39701 6.23023 2.39006L5.8106 0.033663C5.79311 1.06038 5.40845 2.05343 4.72655 2.84451L3.25785 4.54449L2.75079 4.94844C1.77165 5.73952 1.17718 6.88405 1.10724 8.09592L0.39037 9.17313C0.39037 9.17313 -0.886006 10.4355 1.17718 12.0345C1.22963 12.0008 1.33454 11.883 1.61429 11.6305C2.24374 11.0582 4.06214 9.35827 4.06214 9.35827C4.06214 9.35827 5.42594 9.24045 6.16029 7.69196H12.4722H13.2241C15.2698 7.69196 16.9483 8.23057 18.2247 9.30778C19.536 10.4018 20.2004 11.9503 20.2004 13.9028V13.9701C20.2004 15.9394 19.536 17.4879 18.2247 18.5819C16.9483 19.6423 15.2698 20.1809 13.2241 20.1809H6.37011V9.91371L2.01644 14.1047V23.6818H9.51733C11.3882 23.6818 16.5636 23.4293 18.0323 22.9244C19.4836 22.4363 20.7075 21.7462 21.6866 20.871C22.6658 20.0126 23.4176 18.969 23.9247 17.7908C24.4492 16.5958 24.7115 15.2829 24.7115 13.8523V13.7849C24.694 12.3879 24.4317 11.0751 23.9247 9.89688ZM2.61091 7.27118L2.20877 7.60781V7.42266C2.20877 7.40583 2.20877 7.389 2.20877 7.37217C2.1738 7.01871 2.31368 6.66525 2.55846 6.39594C2.6284 6.31178 2.69834 6.24446 2.76828 6.17713L3.17042 5.84051V6.02565C3.17042 6.51376 2.97809 6.96821 2.61091 7.27118Z" fill="#E02424"/>
</svg>
