<svg width="24" height="25" viewBox="0 0 24 25" fill="none" xmlns="http://www.w3.org/2000/svg">
<path d="M13.675 4.68955C13.249 2.94756 10.751 2.94756 10.325 4.68955C10.049 5.81549 8.749 6.3492 7.753 5.74605C6.209 4.81355 4.443 6.56645 5.383 8.09714C5.5243 8.32704 5.60889 8.5868 5.62987 8.85526C5.65085 9.12372 5.60764 9.3933 5.50375 9.64206C5.39985 9.89083 5.23822 10.1117 5.032 10.2868C4.82578 10.4619 4.5808 10.5862 4.317 10.6496C2.561 11.0722 2.561 13.5503 4.317 13.9729C4.58056 14.0365 4.82529 14.1608 5.03127 14.3359C5.23726 14.511 5.3987 14.7318 5.50247 14.9804C5.60624 15.229 5.64942 15.4984 5.62848 15.7667C5.60755 16.035 5.5231 16.2946 5.382 16.5244C4.442 18.056 6.209 19.808 7.752 18.8755C7.98375 18.7353 8.24559 18.6514 8.51621 18.6306C8.78683 18.6097 9.05859 18.6526 9.30935 18.7557C9.56011 18.8587 9.7828 19.0191 9.95929 19.2237C10.1358 19.4282 10.2611 19.6713 10.325 19.9329C10.751 21.6749 13.249 21.6749 13.675 19.9329C13.7391 19.6715 13.8645 19.4287 14.0409 19.2244C14.2174 19.02 14.44 18.8599 14.6906 18.7569C14.9412 18.654 15.2128 18.6112 15.4832 18.6319C15.7537 18.6527 16.0153 18.7365 16.247 18.8764C17.791 19.8089 19.557 18.056 18.617 16.5254C18.4757 16.2955 18.3911 16.0357 18.3701 15.7672C18.3491 15.4988 18.3924 15.2292 18.4963 14.9804C18.6001 14.7317 18.7618 14.5108 18.968 14.3357C19.1742 14.1606 19.4192 14.0363 19.683 13.9729C21.439 13.5503 21.439 11.0722 19.683 10.6496C19.4194 10.586 19.1747 10.4617 18.9687 10.2866C18.7627 10.1115 18.6013 9.89071 18.4975 9.6421C18.3938 9.39349 18.3506 9.12409 18.3715 8.85581C18.3924 8.58753 18.4769 8.32794 18.618 8.09813C19.558 6.56645 17.791 4.81454 16.248 5.74704C16.0162 5.88722 15.7544 5.97113 15.4838 5.99194C15.2132 6.01276 14.9414 5.96989 14.6907 5.86683C14.4399 5.76376 14.2172 5.60342 14.0407 5.39884C13.8642 5.19427 13.7389 4.95124 13.675 4.68955Z" stroke="#6B7280" stroke-width="2" stroke-linecap="round" stroke-linejoin="round"/>
<path d="M14.1213 14.4157C14.6839 13.8575 15 13.1006 15 12.3113C15 11.522 14.6839 10.765 14.1213 10.2069C13.5587 9.64875 12.7956 9.33521 12 9.33521C11.2044 9.33521 10.4413 9.64875 9.87868 10.2069C9.31607 10.765 9 11.522 9 12.3113C9 13.1006 9.31607 13.8575 9.87868 14.4157C10.4413 14.9738 11.2044 15.2873 12 15.2873C12.7956 15.2873 13.5587 14.9738 14.1213 14.4157Z" stroke="#6B7280" stroke-width="2" stroke-linecap="round" stroke-linejoin="round"/>
</svg>
