<svg width="23" height="23" viewBox="0 0 23 23" fill="none" xmlns="http://www.w3.org/2000/svg">
<path fill-rule="evenodd" clip-rule="evenodd" d="M3.42288 6.39746C3.42288 6.10685 3.53833 5.82813 3.74382 5.62264C3.94932 5.41714 4.22803 5.3017 4.51864 5.3017H17.6678C17.9584 5.3017 18.2371 5.41714 18.4426 5.62264C18.6481 5.82813 18.7636 6.10685 18.7636 6.39746C18.7636 6.68807 18.6481 6.96679 18.4426 7.17228C18.2371 7.37778 17.9584 7.49322 17.6678 7.49322H4.51864C4.22803 7.49322 3.94932 7.37778 3.74382 7.17228C3.53833 6.96679 3.42288 6.68807 3.42288 6.39746ZM3.42288 11.8763C3.42288 11.5857 3.53833 11.3069 3.74382 11.1015C3.94932 10.896 4.22803 10.7805 4.51864 10.7805H17.6678C17.9584 10.7805 18.2371 10.896 18.4426 11.1015C18.6481 11.3069 18.7636 11.5857 18.7636 11.8763C18.7636 12.1669 18.6481 12.4456 18.4426 12.6511C18.2371 12.8566 17.9584 12.972 17.6678 12.972H4.51864C4.22803 12.972 3.94932 12.8566 3.74382 12.6511C3.53833 12.4456 3.42288 12.1669 3.42288 11.8763ZM3.42288 17.3551C3.42288 17.0645 3.53833 16.7858 3.74382 16.5803C3.94932 16.3748 4.22803 16.2593 4.51864 16.2593H11.0932C11.3838 16.2593 11.6625 16.3748 11.868 16.5803C12.0735 16.7858 12.189 17.0645 12.189 17.3551C12.189 17.6457 12.0735 17.9244 11.868 18.1299C11.6625 18.3354 11.3838 18.4508 11.0932 18.4508H4.51864C4.22803 18.4508 3.94932 18.3354 3.74382 18.1299C3.53833 17.9244 3.42288 17.6457 3.42288 17.3551Z" fill="#111928"/>
</svg>
